<svg version="1.1" id="Layer_1" xmlns="http://www.w3.org/2000/svg" xmlns:xlink="http://www.w3.org/1999/xlink" x="0px" y="0px"
	 width="100%" viewBox="0 0 1000 1000" enable-background="new 0 0 1000 1000" xml:space="preserve">
<path fill="#000000" opacity="1.000000" stroke="none" 
	d="
M544.000000,1.000001 
	C696.261963,1.000000 848.523987,1.000000 1001.000000,1.000000 
	C1001.000000,153.024017 1001.000000,305.048126 1000.578674,457.559387 
	C999.449890,453.757050 998.781494,449.460663 998.028381,445.179169 
	C994.129089,423.011505 991.566956,400.495056 985.930664,378.776978 
	C979.709351,354.804810 970.662109,331.565979 962.769775,307.660278 
	C960.312805,301.903656 958.190552,296.361969 955.501099,291.110779 
	C948.211304,276.877197 941.086548,262.533417 933.117432,248.681488 
	C926.731079,237.580872 919.203674,227.136673 912.100220,216.083405 
	C894.686890,190.509491 875.463928,166.850189 852.889526,145.597046 
	C839.246887,133.129501 826.024902,120.639847 812.168274,108.899216 
	C804.330139,102.258080 795.449585,96.847397 786.879517,90.584534 
	C779.650208,85.525238 772.787476,80.412895 765.461731,76.083961 
	C754.153015,69.401405 742.527466,63.255005 730.839478,56.597313 
	C717.106018,50.167347 703.569397,44.021255 689.828796,37.584969 
	C677.414734,32.918945 665.204651,28.543110 652.617493,24.087036 
	C651.320251,23.673660 650.419922,23.265106 649.477173,23.018669 
	C634.319397,19.056515 619.156189,15.115017 603.579773,11.108101 
	C600.443420,10.532905 597.735168,9.927438 594.997314,9.520239 
	C585.001831,8.033615 574.996399,6.613149 564.627563,4.966858 
	C558.808228,4.177072 553.341797,3.689849 547.913879,2.928244 
	C546.545959,2.736315 545.301331,1.666428 544.000000,1.000001 
z"/>
<path fill="#000000" opacity="1.000000" stroke="none" 
	d="
M1001.000000,544.000000 
	C1001.000000,696.262024 1001.000000,848.523987 1001.000000,1001.000000 
	C848.975952,1001.000000 696.951843,1001.000000 544.373413,1000.575623 
	C544.327820,999.794495 544.813599,999.168457 545.348755,999.122803 
	C550.418701,998.690613 555.516479,998.525391 560.566589,997.940552 
	C564.405823,997.495911 568.187439,996.553955 572.427002,995.897705 
	C588.291077,992.999207 603.722839,990.036316 619.553589,987.048340 
	C633.315796,983.052979 646.678955,979.082642 660.431763,975.067505 
	C671.226074,971.055603 681.630859,967.088562 692.416260,963.073486 
	C705.543396,957.056458 718.289734,951.087524 731.396240,945.056580 
	C750.501465,933.607544 769.246582,922.220459 788.321289,910.768860 
	C799.421509,902.336426 810.495239,894.325500 820.879883,885.503418 
	C831.941284,876.106445 842.350769,865.942078 853.342407,855.955933 
	C866.876465,841.249512 880.359131,826.913147 893.239136,812.054382 
	C899.119812,805.270325 903.812073,797.456116 909.344727,789.943420 
	C918.816650,775.368835 928.569397,761.290405 936.987732,746.454712 
	C944.769470,732.740906 951.121521,718.215881 958.371704,703.861816 
	C959.386658,702.113953 960.133240,700.552307 960.922974,698.668579 
	C961.009827,697.915466 961.053589,697.484436 961.340271,696.904541 
	C961.732727,696.215698 961.882141,695.675842 962.251465,695.021729 
	C962.781372,694.699158 962.906738,694.410645 962.926147,693.677063 
	C963.932678,691.378296 965.019653,689.503662 965.764038,687.501648 
	C974.954529,662.781799 983.875183,637.916809 988.838806,611.972839 
	C992.947021,590.499756 995.645020,568.757629 999.065063,547.150085 
	C999.242981,546.026123 1000.334045,545.046692 1001.000000,544.000000 
z"/>
<path fill="#000000" opacity="1.000000" stroke="none" 
	d="
M458.000000,1001.000000 
	C305.738007,1001.000000 153.476013,1001.000000 1.000000,1001.000000 
	C1.000000,848.975952 1.000000,696.951843 1.409844,544.280212 
	C2.540540,548.066284 3.264306,552.499451 3.981731,556.933594 
	C6.636726,573.343323 8.941879,589.818909 12.018228,606.149231 
	C17.802341,636.853088 27.406336,666.412048 39.941742,695.417786 
	C42.185406,700.878052 44.064976,706.124756 46.616585,711.021301 
	C54.922153,726.959656 63.222591,742.911072 72.030579,758.573181 
	C76.786804,767.030579 82.572289,774.909180 88.039337,783.366943 
	C106.404724,810.771362 127.030899,835.827942 151.085754,858.409973 
	C156.876831,864.039185 162.320221,869.615540 168.234100,874.637878 
	C179.224014,883.970886 190.267410,893.269226 201.710098,902.031555 
	C210.468445,908.738281 219.875839,914.597473 229.305328,920.994629 
	C245.127945,930.114746 260.433289,939.460205 276.223907,947.897583 
	C286.790558,953.543579 298.046509,957.899597 309.318848,963.001831 
	C328.382660,969.775635 347.072601,976.525146 365.890961,982.895325 
	C371.404816,984.761780 377.283600,985.550232 383.341095,987.017944 
	C389.863861,988.672668 395.982971,990.482178 402.229279,991.541992 
	C415.784088,993.842041 429.403900,995.758911 443.422241,997.900208 
	C447.756927,998.317383 451.680817,998.562195 455.565033,999.095703 
	C456.447235,999.216858 457.191986,1000.338745 458.000000,1001.000000 
z"/>
<path fill="#000000" opacity="1.000000" stroke="none" 
	d="
M1.000007,458.000000 
	C1.000000,305.738007 1.000000,153.476028 1.000000,1.000000 
	C153.024017,1.000000 305.048126,1.000000 457.630035,1.424533 
	C457.677429,2.209010 457.197754,2.825829 456.652069,2.891158 
	C444.437714,4.353482 432.216125,5.755113 419.741608,7.122955 
	C419.318298,7.110464 419.149292,7.143240 418.726440,7.171615 
	C418.277008,7.433656 418.081421,7.700100 417.458984,7.982186 
	C411.073059,9.002584 405.046234,9.714445 399.169800,11.075742 
	C388.398560,13.570963 377.716095,16.449427 366.602295,19.107767 
	C358.456390,21.389597 350.578461,23.384703 342.981659,26.151760 
	C330.215820,30.801596 317.628784,35.942341 304.584839,40.928528 
	C299.843323,42.790066 295.378418,44.383614 291.141479,46.445591 
	C269.801025,56.831165 248.700928,67.665115 228.620544,81.051430 
	C227.474792,81.708771 226.589630,82.141472 225.815033,82.721771 
	C211.057281,93.777412 195.997559,104.460884 181.668610,116.047813 
	C170.940506,124.722961 161.157333,134.566666 150.650009,144.036011 
	C141.166245,153.701096 131.386749,162.721603 122.949753,172.859360 
	C111.089867,187.109985 100.226631,202.190048 88.634285,217.087173 
	C72.570969,240.802078 58.598515,265.363220 46.547363,291.003021 
	C44.417133,295.535248 42.767719,300.293488 40.584518,305.130096 
	C33.491085,324.592560 26.020617,343.665009 20.138668,363.215424 
	C15.144022,379.816620 11.395297,396.859100 8.194881,413.912720 
	C5.608977,427.691833 4.690485,441.782166 2.915272,455.719543 
	C2.809807,456.547577 1.662509,457.242920 1.000007,458.000000 
z"/>
<path fill="#B0065A" opacity="1.000000" stroke="none" 
	d="
M532.000000,1001.000000 
	C518.979126,1001.000000 505.958221,1001.000000 492.498505,1000.579956 
	C492.373138,996.858582 492.960022,993.557312 492.960815,990.255920 
	C493.005066,811.787537 492.999969,633.319214 493.000580,454.850861 
	C493.000610,453.017883 492.761810,451.139771 493.085419,449.364929 
	C493.394257,447.671021 494.293213,446.084747 495.334747,444.482056 
	C507.860291,446.677826 517.781677,441.841980 524.750732,432.786102 
	C531.553101,423.946838 536.468689,413.655609 542.536072,404.092407 
	C544.310486,405.479767 545.761475,406.776520 547.171387,408.440369 
	C542.547607,420.873138 535.816406,431.578308 526.690308,440.991455 
	C526.667053,441.243286 526.786682,441.360962 526.906311,441.478668 
	C526.835510,441.241455 526.764648,441.004242 527.063354,440.984619 
	C532.938232,439.415649 538.443542,437.629120 543.960205,436.320953 
	C543.981018,472.980255 543.965881,509.161255 544.045898,545.341980 
	C544.052368,548.290710 544.708923,551.238037 544.928711,554.488403 
	C539.227234,561.538757 532.607727,567.677490 528.285706,575.145874 
	C513.732300,600.293945 519.143921,631.317505 541.080444,654.208740 
	C541.038696,674.040466 541.018921,693.386169 540.536987,712.813721 
	C533.914001,712.906677 527.751526,712.835327 521.592773,712.954224 
	C516.476807,713.052856 513.908569,715.685547 513.928467,720.682495 
	C513.936340,722.669250 514.150818,724.671753 514.456604,726.638184 
	C516.527344,739.954773 523.444275,750.768250 531.966064,761.061035 
	C531.532532,764.096130 531.025208,766.724976 531.035095,769.351929 
	C531.325134,846.568115 531.666687,923.783997 532.000000,1001.000000 
z"/>
<path fill="#B90759" opacity="1.000000" stroke="none" 
	d="
M419.995880,7.168224 
	C432.216125,5.755113 444.437714,4.353482 456.652069,2.891158 
	C457.197754,2.825829 457.677429,2.209010 458.093933,1.424533 
	C462.356903,1.000000 466.713806,1.000000 471.509949,1.117973 
	C471.949219,1.235947 471.976715,1.475724 471.619690,1.381595 
	C471.495728,1.819141 471.728760,2.350816 472.239380,3.138659 
	C473.341309,4.887341 474.806824,6.346484 474.886505,7.877769 
	C475.422119,18.167774 475.946259,28.472881 475.954346,38.773499 
	C476.009399,108.914970 475.935791,179.056534 475.514740,249.142975 
	C455.979706,253.719025 440.321594,263.978760 426.506195,278.908783 
	C435.626282,281.690521 443.993469,284.242584 452.578186,286.861023 
	C453.547363,284.505157 454.270569,282.674774 455.048553,280.868011 
	C460.071960,269.201630 465.799072,258.001648 475.873718,250.135468 
	C476.410065,252.654037 476.910187,254.713898 477.241119,257.041077 
	C469.054016,266.148621 463.622162,276.428833 459.569214,288.009216 
	C476.507233,291.856812 493.226440,292.376465 510.004120,292.644958 
	C510.003876,294.920258 510.003632,296.793549 509.543823,298.766510 
	C491.900177,297.944458 474.716095,297.022797 456.842987,296.064148 
	C452.453308,310.185272 450.418365,325.762665 450.114838,342.141846 
	C470.498138,342.141846 490.250671,342.141846 510.002441,342.539612 
	C510.003662,344.782898 510.005676,346.628387 509.540039,348.510223 
	C489.506561,348.546539 469.940704,348.546539 448.733337,348.546539 
	C451.294647,364.052460 453.793854,378.507996 456.005524,393.007355 
	C456.620178,397.036804 458.866486,395.560760 461.001526,395.609924 
	C461.688354,397.864288 462.374054,399.675812 462.711670,401.707092 
	C461.290131,402.068665 460.216644,402.210449 458.959290,402.376556 
	C460.090424,405.411682 461.122467,408.180969 461.804474,411.031860 
	C460.177948,412.452576 458.901459,413.791656 457.374420,414.891327 
	C455.581696,411.084686 454.039520,407.517426 452.312561,403.522766 
	C443.811554,406.196991 435.541107,408.798676 426.619629,411.605164 
	C434.400665,420.517273 443.014832,426.838470 451.994324,432.859589 
	C451.203125,435.925171 450.088440,438.616241 450.078308,441.311493 
	C449.957245,473.590027 450.040009,505.869232 449.955170,538.148010 
	C449.943024,542.775391 449.328430,547.401123 448.651855,551.952515 
	C439.865112,547.947388 431.419159,544.017456 422.979187,539.613281 
	C422.990662,494.850342 422.996185,450.561493 423.344116,406.111755 
	C432.471863,403.001068 441.257172,400.051300 449.501343,397.283203 
	C447.127655,381.170441 444.764099,365.126648 442.272705,348.214966 
	C436.228058,348.214966 429.613739,348.214966 422.999573,347.780640 
	C423.000061,345.612000 423.000336,343.877716 423.463623,342.067841 
	C430.311279,341.992279 436.695892,341.992279 442.299530,341.992279 
	C444.775513,325.219757 447.133850,309.243896 449.493103,293.262207 
	C441.009949,290.291443 432.005066,287.137970 423.000061,283.516815 
	C422.999969,211.953537 422.827789,140.857269 423.106384,69.762764 
	C423.188477,48.810204 422.238647,27.973352 419.995880,7.168224 
z"/>
<path fill="#B50659" opacity="1.000000" stroke="none" 
	d="
M457.624939,415.130737 
	C458.901459,413.791656 460.177948,412.452576 462.114929,411.206299 
	C463.612457,413.065247 464.403564,414.854919 465.293854,416.593750 
	C471.854126,429.406433 480.270691,440.254211 494.932739,444.451141 
	C494.293213,446.084747 493.394257,447.671021 493.085419,449.364929 
	C492.761810,451.139771 493.000610,453.017883 493.000580,454.850861 
	C492.999969,633.319214 493.005066,811.787537 492.960815,990.255920 
	C492.960022,993.557312 492.373138,996.858582 492.029846,1000.579956 
	C480.979095,1001.000000 469.958221,1001.000000 458.468628,1001.000000 
	C457.191986,1000.338745 456.447235,999.216858 455.565033,999.095703 
	C451.680817,998.562195 447.756927,998.317383 443.512573,997.503418 
	C444.118500,987.831177 445.840088,978.626465 445.874451,969.415405 
	C446.113556,905.325256 446.002655,841.233826 446.284790,776.925293 
	C448.472534,775.723022 450.391998,774.761597 452.284637,773.749878 
	C484.264038,756.655334 497.691376,718.217102 482.821045,686.669983 
	C477.991333,676.423767 470.071228,669.144043 461.001282,662.392334 
	C461.000946,644.327759 461.000763,626.722229 461.459961,609.035583 
	C465.572113,608.942139 469.230469,609.052429 472.876343,608.887329 
	C477.695831,608.668945 480.237305,606.050720 480.163208,601.334656 
	C480.124725,598.884766 479.773682,596.415649 479.321381,594.000610 
	C477.124603,582.270020 470.679535,572.841370 463.039185,563.709473 
	C463.417419,560.495728 463.955139,557.700073 463.962830,554.903015 
	C464.069214,516.127380 464.102875,477.351532 464.541626,438.596832 
	C468.177551,439.689606 471.426178,440.761292 475.632690,442.148956 
	C471.680389,437.141144 468.164093,433.232239 465.293823,428.895721 
	C462.403259,424.528625 460.154785,419.736603 457.624939,415.130737 
z"/>
<path fill="#EE0B51" opacity="1.000000" stroke="none" 
	d="
M1.000007,458.468658 
	C1.662509,457.242920 2.809807,456.547577 2.915272,455.719543 
	C4.690485,441.782166 5.608977,427.691833 8.194881,413.912720 
	C11.395297,396.859100 15.144022,379.816620 20.138668,363.215424 
	C26.020617,343.665009 33.491085,324.592560 40.824409,305.455505 
	C42.178421,318.079163 42.980785,330.560089 43.882317,344.583588 
	C47.773346,339.052368 50.915913,334.585144 54.058479,330.117889 
	C54.669804,330.149384 55.281132,330.180847 55.892456,330.212341 
	C56.261627,333.086456 56.952114,335.960388 56.953575,338.834686 
	C57.008499,446.949799 57.000221,555.064941 56.997261,663.180115 
	C56.997219,664.678894 57.179657,666.225403 56.872486,667.663147 
	C56.562767,669.112732 55.748119,670.454529 54.729370,672.839111 
	C50.909260,667.409729 47.767525,662.944458 44.625786,658.479248 
	C44.202995,658.627441 43.780201,658.775696 43.357410,658.923889 
	C43.238407,660.490784 43.025341,662.057190 43.016586,663.624695 
	C42.977531,670.621155 43.329868,677.640625 42.855785,684.605164 
	C42.615448,688.135803 40.921925,691.567444 39.885391,695.043884 
	C27.406336,666.412048 17.802341,636.853088 12.018228,606.149231 
	C8.941879,589.818909 6.636726,573.343323 3.981731,556.933594 
	C3.264306,552.499451 2.540540,548.066284 1.409844,543.816345 
	C1.000000,515.645752 1.000000,487.291534 1.000007,458.468658 
z"/>
<path fill="#750062" opacity="1.000000" stroke="none" 
	d="
M962.031616,695.135986 
	C961.882141,695.675842 961.732727,696.215698 961.144775,696.605957 
	C960.803284,683.480774 960.944031,670.505249 960.943420,657.529724 
	C960.943298,655.855713 960.210938,654.181702 959.570740,651.456238 
	C955.426453,658.653259 952.029419,664.552551 948.632446,670.451843 
	C948.280396,670.292236 947.928345,670.132629 947.576294,669.973022 
	C947.576294,557.575500 947.576294,445.177979 947.576294,332.780457 
	C947.973267,332.640137 948.370178,332.499817 948.767151,332.359528 
	C952.243103,337.741852 955.719055,343.124146 960.021362,349.785980 
	C960.483154,346.455292 960.950134,344.595123 960.964294,342.731476 
	C961.039307,332.899933 960.910706,323.065948 961.083557,313.236877 
	C961.114441,311.484039 962.230713,309.750305 962.845764,308.007721 
	C970.662109,331.565979 979.709351,354.804810 985.930664,378.776978 
	C991.566956,400.495056 994.129089,423.011505 998.028381,445.179169 
	C998.781494,449.460663 999.449890,453.757050 1000.578674,458.023254 
	C1001.000000,486.354218 1001.000000,514.708435 1001.000000,543.531372 
	C1000.334045,545.046692 999.242981,546.026123 999.065063,547.150085 
	C995.645020,568.757629 992.947021,590.499756 988.838806,611.972839 
	C983.875183,637.916809 974.954529,662.781799 965.764038,687.501648 
	C965.019653,689.503662 963.932678,691.378296 962.762207,693.837158 
	C962.318420,694.595886 962.155762,694.853821 962.031616,695.135986 
z"/>
<path fill="#B1065A" opacity="1.000000" stroke="none" 
	d="
M477.410278,256.773743 
	C476.910187,254.713898 476.410065,252.654037 475.823853,250.006607 
	C475.737732,249.419022 475.903687,249.198074 475.903687,249.198074 
	C475.935791,179.056534 476.009399,108.914970 475.954346,38.773499 
	C475.946259,28.472881 475.422119,18.167774 474.886505,7.877769 
	C474.806824,6.346484 473.341309,4.887341 472.300873,2.787579 
	C472.048828,1.945463 472.012787,1.710593 471.976715,1.475724 
	C471.976715,1.475724 471.949219,1.235947 471.974609,1.117973 
	C490.354218,1.000000 508.708466,1.000000 527.443970,1.375656 
	C527.227600,3.460032 526.231323,5.139325 526.102661,6.882651 
	C525.589294,13.839120 525.054565,20.815210 525.047363,27.784573 
	C524.973511,99.269302 524.984436,170.754181 525.082764,242.238846 
	C525.085754,244.404465 526.298950,246.568436 526.828796,249.087112 
	C531.848328,256.614929 536.986877,263.788788 541.791748,271.090210 
	C540.376465,273.144287 539.294983,275.070801 538.007812,276.708099 
	C532.640686,269.181396 528.240479,261.187103 522.055908,254.966949 
	C517.782532,250.669037 511.340668,247.644608 505.343201,246.133865 
	C494.055359,243.290497 485.293640,249.418854 477.410278,256.773743 
z"/>
<path fill="#AB055A" opacity="1.000000" stroke="none" 
	d="
M526.947876,248.733170 
	C526.298950,246.568436 525.085754,244.404465 525.082764,242.238846 
	C524.984436,170.754181 524.973511,99.269302 525.047363,27.784573 
	C525.054565,20.815210 525.589294,13.839120 526.102661,6.882651 
	C526.231323,5.139325 527.227600,3.460032 527.912598,1.375656 
	C533.022095,1.000000 538.044189,1.000000 543.533142,1.000001 
	C545.301331,1.666428 546.545959,2.736315 547.913879,2.928244 
	C553.341797,3.689849 558.808228,4.177072 564.539062,5.363948 
	C563.878540,15.487981 562.153503,25.011658 562.124634,34.540462 
	C561.899353,108.961830 562.010437,183.384201 561.953247,257.806213 
	C561.951416,260.217224 561.258972,262.627716 560.562866,264.953979 
	C550.130615,257.448792 539.032471,252.073471 526.947876,248.733170 
z"/>
<path fill="#AB055A" opacity="1.000000" stroke="none" 
	d="
M532.460632,1001.000000 
	C531.666687,923.783997 531.325134,846.568115 531.035095,769.351929 
	C531.025208,766.724976 531.532532,764.096130 532.279907,761.208374 
	C534.931580,762.932434 536.806458,765.479248 539.324402,766.801636 
	C549.807800,772.307922 560.484802,777.445251 570.927979,783.121826 
	C570.510132,786.155212 570.004883,788.787720 570.036560,791.413818 
	C570.858521,859.552063 567.983337,927.726257 571.994690,995.833252 
	C568.187439,996.553955 564.405823,997.495911 560.566589,997.940552 
	C555.516479,998.525391 550.418701,998.690613 545.348755,999.122803 
	C544.813599,999.168457 544.327820,999.794495 543.909546,1000.575623 
	C540.307068,1001.000000 536.614197,1001.000000 532.460632,1001.000000 
z"/>
<path fill="#89025F" opacity="1.000000" stroke="none" 
	d="
M853.044861,856.112671 
	C842.350769,865.942078 831.941284,876.106445 820.879883,885.503418 
	C810.495239,894.325500 799.421509,902.336426 788.323303,910.311523 
	C787.994324,904.252502 788.146179,898.579468 787.892029,892.924622 
	C787.821838,891.362793 786.518494,888.517151 785.821899,888.529724 
	C778.782410,888.656982 780.004822,883.749573 780.004700,879.567261 
	C779.999512,627.259155 780.000000,374.951080 780.000549,122.642998 
	C780.000549,121.143166 780.058044,119.641357 779.999756,118.143944 
	C779.899780,115.578423 780.744385,113.914948 783.640137,113.997864 
	C787.281799,114.102150 788.157043,111.873886 787.993347,108.790054 
	C787.676514,102.820793 787.356934,96.851677 787.038513,90.882515 
	C795.449585,96.847397 804.330139,102.258080 812.168274,108.899216 
	C826.024902,120.639847 839.246887,133.129501 852.879150,146.073456 
	C853.015869,152.006348 853.004456,157.171463 853.000732,162.336563 
	C852.993958,171.783340 852.956726,171.810226 843.848206,169.455505 
	C843.581848,169.386658 843.233765,169.634491 842.583008,169.844788 
	C842.583008,390.621552 842.583008,611.498657 842.583008,832.835205 
	C844.000610,832.425415 844.773621,832.250854 845.511719,831.980774 
	C851.511292,829.784851 852.966431,830.770142 852.996399,837.118530 
	C853.026306,843.449829 853.029785,849.781311 853.044861,856.112671 
z"/>
<path fill="#91035E" opacity="1.000000" stroke="none" 
	d="
M786.879517,90.584526 
	C787.356934,96.851677 787.676514,102.820793 787.993347,108.790054 
	C788.157043,111.873886 787.281799,114.102150 783.640137,113.997864 
	C780.744385,113.914948 779.899780,115.578423 779.999756,118.143944 
	C780.058044,119.641357 780.000549,121.143166 780.000549,122.642998 
	C780.000000,374.951080 779.999512,627.259155 780.004700,879.567261 
	C780.004822,883.749573 778.782410,888.656982 785.821899,888.529724 
	C786.518494,888.517151 787.821838,891.362793 787.892029,892.924622 
	C788.146179,898.579468 787.994324,904.252502 787.993652,910.376099 
	C769.246582,922.220459 750.501465,933.607544 731.387939,944.579956 
	C731.011047,939.166870 731.115112,934.164185 730.926636,929.172607 
	C730.868958,927.645386 730.285889,925.020630 729.470764,924.820129 
	C724.038818,923.484070 725.010803,919.352844 725.010681,915.641357 
	C724.999023,639.229004 724.999939,362.816711 725.001526,86.404381 
	C725.001526,84.905037 724.692627,83.299637 725.128601,81.935776 
	C725.575867,80.536713 726.778687,79.384865 727.620422,78.104858 
	C728.760071,76.371819 730.685120,74.688820 730.839966,72.862793 
	C731.288879,67.568108 731.022217,62.212734 731.036377,56.881180 
	C742.527466,63.255005 754.153015,69.401405 765.461731,76.083961 
	C772.787476,80.412895 779.650208,85.525238 786.879517,90.584526 
z"/>
<path fill="#810160" opacity="1.000000" stroke="none" 
	d="
M853.342407,855.955933 
	C853.029785,849.781311 853.026306,843.449829 852.996399,837.118530 
	C852.966431,830.770142 851.511292,829.784851 845.511719,831.980774 
	C844.773621,832.250854 844.000610,832.425415 842.583008,832.835205 
	C842.583008,611.498657 842.583008,390.621552 842.583008,169.844788 
	C843.233765,169.634491 843.581848,169.386658 843.848206,169.455505 
	C852.956726,171.810226 852.993958,171.783340 853.000732,162.336563 
	C853.004456,157.171463 853.015869,152.006348 853.034180,146.364838 
	C875.463928,166.850189 894.686890,190.509491 912.061035,216.595627 
	C912.104187,227.048691 912.104187,236.671738 912.104187,247.492676 
	C907.742615,244.270523 904.886292,242.160416 900.680725,239.053513 
	C900.377441,243.068283 900.023865,245.565887 900.023499,248.063553 
	C899.997498,416.267303 900.000000,584.471069 900.000854,752.674805 
	C900.000854,754.007080 899.935608,755.345032 900.033936,756.670532 
	C900.346375,760.880615 902.444641,761.877869 905.906250,759.318726 
	C907.709717,757.985474 909.238708,756.280762 911.599365,754.085754 
	C911.774292,756.526978 912.004395,758.101562 911.980774,759.672241 
	C911.827271,769.895569 913.246826,780.276184 909.043396,790.109192 
	C903.812073,797.456116 899.119812,805.270325 893.239136,812.054382 
	C880.359131,826.913147 866.876465,841.249512 853.342407,855.955933 
z"/>
<path fill="#98035D" opacity="1.000000" stroke="none" 
	d="
M730.839478,56.597305 
	C731.022217,62.212734 731.288879,67.568108 730.839966,72.862793 
	C730.685120,74.688820 728.760071,76.371819 727.620422,78.104858 
	C726.778687,79.384865 725.575867,80.536713 725.128601,81.935776 
	C724.692627,83.299637 725.001526,84.905037 725.001526,86.404381 
	C724.999939,362.816711 724.999023,639.229004 725.010681,915.641357 
	C725.010803,919.352844 724.038818,923.484070 729.470764,924.820129 
	C730.285889,925.020630 730.868958,927.645386 730.926636,929.172607 
	C731.115112,934.164185 731.011047,939.166870 731.027832,944.641968 
	C718.289734,951.087524 705.543396,957.056458 692.408203,962.596741 
	C692.008606,957.338928 692.140137,952.502686 691.900879,947.684937 
	C691.828369,946.225220 690.984070,943.785950 690.059021,943.558105 
	C685.389893,942.407959 685.999573,938.962097 685.999634,935.659485 
	C686.000183,883.038025 686.016663,830.416565 685.956116,777.795166 
	C685.952698,774.835144 685.314636,771.875977 685.099121,768.601685 
	C701.444153,757.023315 710.940552,741.636169 712.563110,721.927917 
	C715.045471,691.775208 704.876343,672.572510 680.250488,660.153259 
	C672.731689,656.361328 664.652832,653.679993 656.865845,649.990662 
	C656.934570,637.927124 656.856567,626.360596 657.095459,614.800720 
	C657.142944,612.505249 658.405579,610.234863 659.521851,607.963196 
	C673.023315,608.248047 686.111633,608.714966 699.197937,608.665894 
	C702.592896,608.653137 705.038513,605.894653 704.906433,602.262146 
	C704.770264,598.517456 704.249573,594.716370 703.330200,591.083496 
	C700.328979,579.224670 693.063538,569.897095 684.966553,560.647217 
	C684.984253,397.174927 684.992126,234.178925 685.000305,71.182907 
	C685.000366,69.516289 684.950256,67.847519 685.016968,66.183502 
	C685.144897,62.993519 685.142456,59.823750 689.105408,58.486454 
	C689.981628,58.190762 690.881897,56.374115 690.860107,55.275913 
	C690.744812,49.472477 690.338318,43.674828 690.032837,37.875168 
	C703.569397,44.021255 717.106018,50.167347 730.839478,56.597305 
z"/>
<path fill="#7A0161" opacity="1.000000" stroke="none" 
	d="
M909.344727,789.943420 
	C913.246826,780.276184 911.827271,769.895569 911.980774,759.672241 
	C912.004395,758.101562 911.774292,756.526978 911.599365,754.085754 
	C909.238708,756.280762 907.709717,757.985474 905.906250,759.318726 
	C902.444641,761.877869 900.346375,760.880615 900.033936,756.670532 
	C899.935608,755.345032 900.000854,754.007080 900.000854,752.674805 
	C900.000000,584.471069 899.997498,416.267303 900.023499,248.063553 
	C900.023865,245.565887 900.377441,243.068283 900.680725,239.053513 
	C904.886292,242.160416 907.742615,244.270523 912.104187,247.492676 
	C912.104187,236.671738 912.104187,227.048691 912.143433,216.913422 
	C919.203674,227.136673 926.731079,237.580872 933.117432,248.681488 
	C941.086548,262.533417 948.211304,276.877197 955.501099,291.110779 
	C958.190552,296.361969 960.312805,301.903656 962.769775,307.660278 
	C962.230713,309.750305 961.114441,311.484039 961.083557,313.236877 
	C960.910706,323.065948 961.039307,332.899933 960.964294,342.731476 
	C960.950134,344.595123 960.483154,346.455292 960.021362,349.785980 
	C955.719055,343.124146 952.243103,337.741852 948.767151,332.359528 
	C948.370178,332.499817 947.973267,332.640137 947.576294,332.780457 
	C947.576294,445.177979 947.576294,557.575500 947.576294,669.973022 
	C947.928345,670.132629 948.280396,670.292236 948.632446,670.451843 
	C952.029419,664.552551 955.426453,658.653259 959.570740,651.456238 
	C960.210938,654.181702 960.943298,655.855713 960.943420,657.529724 
	C960.944031,670.505249 960.803284,683.480774 960.901733,696.754883 
	C961.053589,697.484436 961.009827,697.915466 960.565674,698.697632 
	C957.037476,699.708740 956.308167,701.357849 958.103271,704.048157 
	C951.121521,718.215881 944.769470,732.740906 936.987732,746.454712 
	C928.569397,761.290405 918.816650,775.368835 909.344727,789.943420 
z"/>
<path fill="#A1045C" opacity="1.000000" stroke="none" 
	d="
M603.994263,11.168825 
	C619.156189,15.115017 634.319397,19.056515 649.477173,23.018669 
	C650.419922,23.265106 651.320251,23.673660 652.651978,24.495533 
	C653.358887,30.779751 653.721680,36.573303 653.887390,42.372467 
	C653.917542,43.425724 653.451416,45.040905 652.687927,45.478745 
	C648.290466,48.000687 648.995667,52.109974 648.995789,56.064987 
	C649.000732,214.587143 649.001160,373.109314 648.990723,531.631470 
	C648.990540,534.626404 648.853394,537.621277 648.381470,540.548767 
	C632.959961,535.919678 617.514465,535.550049 602.001221,535.386597 
	C602.000305,480.107513 602.038818,425.287292 601.890869,370.467590 
	C601.883118,367.581451 600.293518,364.699585 599.447754,361.370728 
	C599.840820,356.869843 600.226440,352.813965 600.723022,348.361389 
	C600.832764,345.856812 600.831482,343.748993 600.750244,341.240723 
	C600.240356,336.628754 599.810547,332.417206 599.700317,327.943695 
	C600.679932,324.501709 601.913086,321.322357 601.916626,318.141632 
	C602.019714,225.593857 601.998840,133.045959 602.008301,40.498081 
	C602.008484,38.504677 601.472900,36.164234 602.309265,34.576790 
	C606.330078,26.945141 605.069153,19.080654 603.994263,11.168825 
z"/>
<path fill="#A8065C" opacity="1.000000" stroke="none" 
	d="
M600.830200,341.641144 
	C600.831482,343.748993 600.832764,345.856812 600.282288,348.311462 
	C586.156067,348.658234 572.581543,348.658234 559.658447,348.658234 
	C557.209412,365.259216 554.846802,381.274689 552.472961,397.366028 
	C559.998962,399.810333 568.083191,402.235046 576.002380,405.113800 
	C578.886536,406.162262 580.329407,405.777161 582.110718,403.270355 
	C591.019409,390.733490 596.536987,376.834625 599.440308,361.815765 
	C600.293518,364.699585 601.883118,367.581451 601.890869,370.467590 
	C602.038818,425.287292 602.000305,480.107513 601.575806,535.477783 
	C582.817139,537.371948 565.411011,541.679810 549.836365,551.950073 
	C548.385010,552.907104 546.660889,553.450500 545.063354,554.185974 
	C544.708923,551.238037 544.052368,548.290710 544.045898,545.341980 
	C543.965881,509.161255 543.981018,472.980255 544.116821,436.014038 
	C555.825012,429.339752 566.278381,422.032990 575.340454,411.448273 
	C566.168335,408.638275 557.837952,406.086182 549.595520,403.561005 
	C548.584290,405.475769 547.898315,406.774536 547.212402,408.073303 
	C545.761475,406.776520 544.310486,405.479767 542.517578,403.752747 
	C542.119141,402.880981 542.062683,402.439453 542.342163,401.857971 
	C543.118774,399.832062 543.559509,397.946167 544.323730,395.877411 
	C549.739990,380.493042 551.459473,364.811615 551.949646,348.473907 
	C537.543823,348.473907 523.775757,348.473907 510.007660,348.473907 
	C510.005676,346.628387 510.003662,344.782898 510.465576,342.464813 
	C524.492310,341.992249 538.055115,341.992249 551.960999,341.992249 
	C551.449463,325.583069 549.598572,310.069946 544.906006,295.314453 
	C532.983643,296.459625 521.493469,297.563232 510.003357,298.666870 
	C510.003632,296.793549 510.003876,294.920258 510.451599,292.558380 
	C521.348511,290.960144 531.797974,289.850433 542.881592,288.673401 
	C541.012390,283.998199 539.612915,280.497772 538.213440,276.997314 
	C539.294983,275.070801 540.376465,273.144287 542.068665,271.299347 
	C544.926392,276.333618 547.173462,281.286316 549.670959,286.791168 
	C558.127319,284.232086 566.458374,281.710907 575.660645,278.926056 
	C570.271973,273.860046 565.580200,269.449249 560.888428,265.038452 
	C561.258972,262.627716 561.951416,260.217224 561.953247,257.806213 
	C562.010437,183.384201 561.899353,108.961830 562.124634,34.540462 
	C562.153503,25.011658 563.878540,15.487981 564.906250,5.564837 
	C574.996399,6.613149 585.001831,8.033615 594.997314,9.520239 
	C597.735168,9.927438 600.443420,10.532905 603.579773,11.108101 
	C605.069153,19.080654 606.330078,26.945141 602.309265,34.576790 
	C601.472900,36.164234 602.008484,38.504677 602.008301,40.498081 
	C601.998840,133.045959 602.019714,225.593857 601.916626,318.141632 
	C601.913086,321.322357 600.679932,324.501709 599.561035,327.599060 
	C596.209045,311.386841 589.763611,296.881226 579.640625,284.212311 
	C570.160400,287.315887 560.985718,290.319427 552.482300,293.103210 
	C554.881104,309.416412 557.237732,325.442932 559.619690,341.641144 
	C572.984070,341.641144 586.907166,341.641144 600.830200,341.641144 
z"/>
<path fill="#9B045D" opacity="1.000000" stroke="none" 
	d="
M648.780151,540.616211 
	C648.853394,537.621277 648.990540,534.626404 648.990723,531.631470 
	C649.001160,373.109314 649.000732,214.587143 648.995789,56.064987 
	C648.995667,52.109974 648.290466,48.000687 652.687927,45.478745 
	C653.451416,45.040905 653.917542,43.425724 653.887390,42.372467 
	C653.721680,36.573303 653.358887,30.779751 653.029175,24.575771 
	C665.204651,28.543110 677.414734,32.918945 689.828796,37.584972 
	C690.338318,43.674828 690.744812,49.472477 690.860107,55.275913 
	C690.881897,56.374115 689.981628,58.190762 689.105408,58.486454 
	C685.142456,59.823750 685.144897,62.993519 685.016968,66.183502 
	C684.950256,67.847519 685.000366,69.516289 685.000305,71.182907 
	C684.992126,234.178925 684.984253,397.174927 684.651550,560.523682 
	C674.280029,550.961060 661.769165,545.369141 648.780151,540.616211 
z"/>
<path fill="#A6055B" opacity="1.000000" stroke="none" 
	d="
M572.427002,995.897705 
	C567.983337,927.726257 570.858521,859.552063 570.036560,791.413818 
	C570.004883,788.787720 570.510132,786.155212 571.334717,783.142151 
	C586.602844,784.520691 601.301575,786.282837 616.000122,788.510864 
	C615.999939,845.758545 615.992981,902.540405 616.027161,959.322266 
	C616.028442,961.455078 616.277344,963.616333 616.675903,965.713989 
	C617.337219,969.193604 618.510864,972.597778 618.917847,976.097839 
	C619.338684,979.716614 619.103088,983.411743 619.154663,987.073486 
	C603.722839,990.036316 588.291077,992.999207 572.427002,995.897705 
z"/>
<path fill="#A0045C" opacity="1.000000" stroke="none" 
	d="
M619.553589,987.048401 
	C619.103088,983.411743 619.338684,979.716614 618.917847,976.097839 
	C618.510864,972.597778 617.337219,969.193604 616.675903,965.713989 
	C616.277344,963.616333 616.028442,961.455078 616.027161,959.322266 
	C615.992981,902.540405 615.999939,845.758545 616.439331,788.404297 
	C629.577026,786.189819 642.275452,784.547668 654.979675,783.380127 
	C654.990417,838.228088 654.978271,892.601501 655.062012,946.974731 
	C655.065430,949.164062 655.247742,952.267212 656.613098,953.355042 
	C659.716125,955.827271 660.111084,958.696838 660.028259,962.143494 
	C659.924500,966.463867 660.028076,970.789124 660.042175,975.112305 
	C646.678955,979.082642 633.315796,983.052979 619.553589,987.048401 
z"/>
<path fill="#9B045D" opacity="1.000000" stroke="none" 
	d="
M660.431763,975.067505 
	C660.028076,970.789124 659.924500,966.463867 660.028259,962.143494 
	C660.111084,958.696838 659.716125,955.827271 656.613098,953.355042 
	C655.247742,952.267212 655.065430,949.164062 655.062012,946.974731 
	C654.978271,892.601501 654.990417,838.228088 655.249146,783.130859 
	C665.332581,777.910095 675.152283,773.413208 684.972046,768.916382 
	C685.314636,771.875977 685.952698,774.835144 685.956116,777.795166 
	C686.016663,830.416565 686.000183,883.038025 685.999634,935.659485 
	C685.999573,938.962097 685.389893,942.407959 690.059021,943.558105 
	C690.984070,943.785950 691.828369,946.225220 691.900879,947.684937 
	C692.140137,952.502686 692.008606,957.338928 692.027466,962.644775 
	C681.630859,967.088562 671.226074,971.055603 660.431763,975.067505 
z"/>
<path fill="#750062" opacity="1.000000" stroke="none" 
	d="
M958.371704,703.861816 
	C956.308167,701.357849 957.037476,699.708740 960.522461,699.019775 
	C960.133240,700.552307 959.386658,702.113953 958.371704,703.861816 
z"/>
<path fill="#7A0161" opacity="1.000000" stroke="none" 
	d="
M962.251526,695.021729 
	C962.155762,694.853821 962.318420,694.595886 962.683472,694.202026 
	C962.906738,694.410645 962.781372,694.699158 962.251526,695.021729 
z"/>
<path fill="#CF0856" opacity="1.000000" stroke="none" 
	d="
M228.932617,80.895493 
	C248.700928,67.665115 269.801025,56.831165 291.141479,46.445591 
	C295.378418,44.383614 299.843323,42.790066 304.592285,41.405006 
	C304.988617,46.325359 304.914154,50.823692 305.051056,55.315582 
	C305.094025,56.725681 305.261688,58.898434 306.128815,59.391373 
	C311.376495,62.374630 310.994934,67.281830 310.995117,72.110840 
	C311.001007,232.961929 310.998199,393.813019 311.013916,554.664124 
	C311.014191,557.655945 311.222656,560.647827 311.186707,563.925110 
	C289.893097,586.897400 289.541443,632.009827 315.898987,653.694397 
	C315.535736,656.372681 315.044464,658.662964 315.035706,660.955017 
	C314.969849,678.212769 314.998962,695.470825 314.536255,712.810425 
	C308.605469,712.901550 303.136322,712.868347 297.668243,712.931824 
	C291.294617,713.005798 288.155243,715.979309 289.275879,722.253662 
	C290.484650,729.021301 292.237030,735.839294 294.865570,742.173279 
	C299.481232,753.295776 307.946564,761.527161 317.000977,769.209595 
	C316.487244,771.824585 316.032715,774.108521 316.030945,776.392761 
	C315.990753,828.763733 316.004333,881.134766 315.990692,933.505737 
	C315.989716,937.259521 316.758972,941.342651 311.376953,942.625549 
	C310.616608,942.806763 310.183899,945.438965 310.049896,946.976013 
	C309.589874,952.252197 309.330109,957.545898 308.993988,962.832886 
	C298.046509,957.899597 286.790558,953.543579 276.223907,947.897583 
	C260.433289,939.460205 245.127945,930.114746 229.396210,920.597534 
	C229.450867,915.906433 229.896240,911.776306 229.963455,907.640015 
	C230.092514,899.698425 230.003555,899.696960 237.582977,899.075928 
	C237.582977,633.666809 237.582977,368.230865 237.582977,102.811218 
	C230.006119,102.517624 230.128250,102.514893 229.953796,94.722023 
	C229.850510,90.107872 229.288422,85.503990 228.932617,80.895493 
z"/>
<path fill="#D90954" opacity="1.000000" stroke="none" 
	d="
M228.620544,81.051430 
	C229.288422,85.503990 229.850510,90.107872 229.953796,94.722023 
	C230.128250,102.514893 230.006119,102.517624 237.582977,102.811218 
	C237.582977,368.230865 237.582977,633.666809 237.582977,899.075928 
	C230.003555,899.696960 230.092514,899.698425 229.963455,907.640015 
	C229.896240,911.776306 229.450867,915.906433 229.085419,920.436523 
	C219.875839,914.597473 210.468445,908.738281 201.710098,902.031555 
	C190.267410,893.269226 179.224014,883.970886 168.234100,874.637878 
	C162.320221,869.615540 156.876831,864.039185 151.251404,858.019165 
	C151.704636,850.017273 152.127594,842.709045 152.585007,834.805908 
	C154.534500,835.732361 155.561768,836.210938 156.580795,836.706543 
	C161.415924,839.058167 162.881821,838.186462 162.995605,832.878174 
	C163.013458,832.045227 162.999908,831.211548 162.999908,830.378235 
	C163.000015,611.045227 163.000092,391.712280 162.998428,172.379288 
	C162.998413,170.879486 163.076691,169.370453 162.941772,167.881729 
	C162.607132,164.189545 160.794861,163.289246 157.521011,165.077148 
	C152.697968,167.711075 152.195557,167.320999 151.975601,161.729950 
	C151.741486,155.779129 151.302795,149.836349 150.953430,143.890060 
	C161.157333,134.566666 170.940506,124.722961 181.668610,116.047813 
	C195.997559,104.460884 211.057281,93.777412 225.815033,82.721771 
	C226.589630,82.141472 227.474792,81.708771 228.620544,81.051430 
z"/>
<path fill="#E20A53" opacity="1.000000" stroke="none" 
	d="
M150.650024,144.036011 
	C151.302795,149.836349 151.741486,155.779129 151.975601,161.729950 
	C152.195557,167.320999 152.697968,167.711075 157.521011,165.077148 
	C160.794861,163.289246 162.607132,164.189545 162.941772,167.881729 
	C163.076691,169.370453 162.998413,170.879486 162.998428,172.379288 
	C163.000092,391.712280 163.000015,611.045227 162.999908,830.378235 
	C162.999908,831.211548 163.013458,832.045227 162.995605,832.878174 
	C162.881821,838.186462 161.415924,839.058167 156.580795,836.706543 
	C155.561768,836.210938 154.534500,835.732361 152.585007,834.805908 
	C152.127594,842.709045 151.704636,850.017273 151.115997,857.716309 
	C127.030899,835.827942 106.404724,810.771362 88.381897,783.190735 
	C89.385414,780.694031 90.773529,778.724182 90.888077,776.682922 
	C91.207542,770.989807 90.999138,765.266968 90.999138,758.764771 
	C95.539261,760.428894 98.799232,761.623779 103.000000,763.163452 
	C103.000000,759.650452 103.000000,757.198425 103.000000,754.746460 
	C103.000000,585.686768 103.000008,416.627045 102.999809,247.567322 
	C102.999809,246.234833 103.158592,244.876587 102.951447,243.576874 
	C102.730385,242.189911 102.537636,240.228668 101.634010,239.690079 
	C100.826813,239.208969 99.062889,240.310364 97.729683,240.740036 
	C95.919846,241.323303 94.118156,241.931839 92.312981,242.529556 
	C91.875458,240.685089 91.250633,238.862320 91.034111,236.992264 
	C90.260254,230.308655 89.624908,223.608978 88.937164,216.915390 
	C100.226631,202.190048 111.089867,187.109985 122.949753,172.859360 
	C131.386749,162.721603 141.166245,153.701096 150.650024,144.036011 
z"/>
<path fill="#E80A52" opacity="1.000000" stroke="none" 
	d="
M88.634277,217.087173 
	C89.624908,223.608978 90.260254,230.308655 91.034111,236.992264 
	C91.250633,238.862320 91.875458,240.685089 92.312981,242.529556 
	C94.118156,241.931839 95.919846,241.323303 97.729683,240.740036 
	C99.062889,240.310364 100.826813,239.208969 101.634010,239.690079 
	C102.537636,240.228668 102.730385,242.189911 102.951447,243.576874 
	C103.158592,244.876587 102.999809,246.234833 102.999809,247.567322 
	C103.000008,416.627045 103.000000,585.686768 103.000000,754.746460 
	C103.000000,757.198425 103.000000,759.650452 103.000000,763.163452 
	C98.799232,761.623779 95.539261,760.428894 90.999138,758.764771 
	C90.999138,765.266968 91.207542,770.989807 90.888077,776.682922 
	C90.773529,778.724182 89.385414,780.694031 88.235985,782.872681 
	C82.572289,774.909180 76.786804,767.030579 72.030579,758.573181 
	C63.222591,742.911072 54.922153,726.959656 46.616585,711.021301 
	C44.064976,706.124756 42.185406,700.878052 39.941742,695.417786 
	C40.921925,691.567444 42.615448,688.135803 42.855785,684.605164 
	C43.329868,677.640625 42.977531,670.621155 43.016586,663.624695 
	C43.025341,662.057190 43.238407,660.490784 43.357410,658.923889 
	C43.780201,658.775696 44.202995,658.627441 44.625786,658.479248 
	C47.767525,662.944458 50.909260,667.409729 54.729370,672.839111 
	C55.748119,670.454529 56.562767,669.112732 56.872486,667.663147 
	C57.179657,666.225403 56.997219,664.678894 56.997261,663.180115 
	C57.000221,555.064941 57.008499,446.949799 56.953575,338.834686 
	C56.952114,335.960388 56.261627,333.086456 55.892456,330.212341 
	C55.281132,330.180847 54.669804,330.149384 54.058479,330.117889 
	C50.915913,334.585144 47.773346,339.052368 43.882317,344.583588 
	C42.980785,330.560089 42.178421,318.079163 41.136166,305.272766 
	C42.767719,300.293488 44.417133,295.535248 46.547363,291.003021 
	C58.598515,265.363220 72.570969,240.802078 88.634277,217.087173 
z"/>
<path fill="#C50757" opacity="1.000000" stroke="none" 
	d="
M309.318848,963.001831 
	C309.330109,957.545898 309.589874,952.252197 310.049896,946.976013 
	C310.183899,945.438965 310.616608,942.806763 311.376953,942.625549 
	C316.758972,941.342651 315.989716,937.259521 315.990692,933.505737 
	C316.004333,881.134766 315.990753,828.763733 316.030945,776.392761 
	C316.032715,774.108521 316.487244,771.824585 317.332672,769.280212 
	C328.309814,773.704224 338.315125,779.740112 349.160034,782.709229 
	C361.035797,785.960632 373.686981,786.379883 386.000092,788.500000 
	C385.999969,845.461853 386.008820,901.957092 385.968231,958.452393 
	C385.966583,960.751221 385.620453,963.071106 385.220947,965.343506 
	C384.574005,969.023315 383.477142,972.642578 383.079315,976.342163 
	C382.707184,979.802002 382.996765,983.333069 382.995117,986.832764 
	C377.283600,985.550232 371.404816,984.761780 365.890961,982.895325 
	C347.072601,976.525146 328.382660,969.775635 309.318848,963.001831 
z"/>
<path fill="#BC0758" opacity="1.000000" stroke="none" 
	d="
M383.341125,987.017944 
	C382.996765,983.333069 382.707184,979.802002 383.079315,976.342163 
	C383.477142,972.642578 384.574005,969.023315 385.220947,965.343506 
	C385.620453,963.071106 385.966583,960.751221 385.968231,958.452393 
	C386.008820,901.957092 385.999969,845.461853 386.457642,788.412231 
	C407.265594,787.893005 427.087067,785.011902 446.003998,777.142761 
	C446.002655,841.233826 446.113556,905.325256 445.874451,969.415405 
	C445.840088,978.626465 444.118500,987.831177 443.087433,997.435608 
	C429.403900,995.758911 415.784088,993.842041 402.229279,991.541992 
	C395.982971,990.482178 389.863861,988.672668 383.341125,987.017944 
z"/>
<path fill="#C60757" opacity="1.000000" stroke="none" 
	d="
M311.333984,563.639648 
	C311.222656,560.647827 311.014191,557.655945 311.013916,554.664124 
	C310.998199,393.813019 311.001007,232.961929 310.995117,72.110840 
	C310.994934,67.281830 311.376495,62.374630 306.128815,59.391373 
	C305.261688,58.898434 305.094025,56.725681 305.051056,55.315582 
	C304.914154,50.823692 304.988617,46.325359 304.973969,41.353035 
	C317.628784,35.942341 330.215820,30.801596 342.981659,26.151760 
	C350.578461,23.384703 358.456390,21.389597 366.603027,19.564737 
	C366.999847,24.246927 366.907623,28.415047 367.050812,32.575062 
	C367.106049,34.179600 367.621948,35.786266 368.057495,37.356030 
	C368.993713,40.730339 370.873688,44.080555 370.876617,47.441933 
	C371.018616,210.372971 371.001770,373.304138 370.656525,536.428833 
	C347.661041,539.100037 327.433258,546.863770 311.333984,563.639648 
z"/>
<path fill="#BF0758" opacity="1.000000" stroke="none" 
	d="
M371.002686,536.235291 
	C371.001770,373.304138 371.018616,210.372971 370.876617,47.441933 
	C370.873688,44.080555 368.993713,40.730339 368.057495,37.356030 
	C367.621948,35.786266 367.106049,34.179600 367.050812,32.575062 
	C366.907623,28.415047 366.999847,24.246927 366.997375,19.625069 
	C377.716095,16.449427 388.398560,13.570963 399.169800,11.075742 
	C405.046234,9.714445 411.073059,9.002584 417.661560,7.880143 
	C418.549683,7.600928 418.779388,7.405447 418.980255,7.176017 
	C419.149292,7.143240 419.318298,7.110464 419.741608,7.122956 
	C422.238647,27.973352 423.188477,48.810204 423.106384,69.762764 
	C422.827789,140.857269 422.999969,211.953537 422.684021,283.639465 
	C409.068176,300.976196 402.401306,320.110840 401.366791,342.143402 
	C408.844421,342.143402 415.922516,342.143402 423.000610,342.143402 
	C423.000336,343.877716 423.000061,345.612000 422.547974,347.916656 
	C415.338684,348.487000 408.581207,348.487000 401.461243,348.487000 
	C401.969879,365.485260 406.284424,380.741882 414.595062,394.803986 
	C416.994934,398.864685 420.177795,402.462585 423.001709,406.272675 
	C422.996185,450.561493 422.990662,494.850342 422.577820,539.620789 
	C405.381165,535.286011 388.198425,535.674622 371.002686,536.235291 
z"/>
<path fill="#B90759" opacity="1.000000" stroke="none" 
	d="
M418.726440,7.171615 
	C418.779388,7.405447 418.549683,7.600928 418.088470,7.864501 
	C418.081421,7.700100 418.277008,7.433656 418.726440,7.171615 
z"/>
<path fill="#FEFEFE" opacity="1.000000" stroke="none" 
	d="
M685.099182,768.601685 
	C675.152283,773.413208 665.332581,777.910095 655.243286,782.656250 
	C642.275452,784.547668 629.577026,786.189819 616.439453,787.938477 
	C601.301575,786.282837 586.602844,784.520691 571.497498,782.738281 
	C560.484802,777.445251 549.807800,772.307922 539.324402,766.801636 
	C536.806458,765.479248 534.931580,762.932434 532.447205,760.801331 
	C523.444275,750.768250 516.527344,739.954773 514.456604,726.638184 
	C514.150818,724.671753 513.936340,722.669250 513.928467,720.682495 
	C513.908569,715.685547 516.476807,713.052856 521.592773,712.954224 
	C527.751526,712.835327 533.914001,712.906677 540.997620,712.894775 
	C543.917725,712.903076 545.944458,713.138062 547.907288,712.882446 
	C556.418823,711.774414 561.230896,715.535095 564.930298,723.245789 
	C571.648621,737.248596 583.950806,743.963013 599.361572,746.282410 
	C614.401428,748.100952 628.978699,748.160889 643.103333,743.077026 
	C651.385315,740.096191 658.113159,735.087891 661.619751,726.721741 
	C667.372742,712.995972 662.411987,700.044006 646.732361,693.602295 
	C631.311157,687.266663 614.949646,683.219666 598.646973,678.018311 
	C589.546509,675.219299 580.661987,672.948975 572.087708,669.826599 
	C561.100891,665.825684 550.248352,661.359619 541.102478,653.722595 
	C519.143921,631.317505 513.732300,600.293945 528.285706,575.145874 
	C532.607727,567.677490 539.227234,561.538757 544.928711,554.488403 
	C546.660889,553.450500 548.385010,552.907104 549.836365,551.950073 
	C565.411011,541.679810 582.817139,537.371948 601.576538,535.936707 
	C617.514465,535.550049 632.959961,535.919678 648.381470,540.548767 
	C661.769165,545.369141 674.280029,550.961060 684.641663,561.000000 
	C693.063538,569.897095 700.328979,579.224670 703.330200,591.083496 
	C704.249573,594.716370 704.770264,598.517456 704.906433,602.262146 
	C705.038513,605.894653 702.592896,608.653137 699.197937,608.665894 
	C686.111633,608.714966 673.023315,608.248047 659.410645,607.635620 
	C657.606384,605.382874 655.729614,603.632141 655.150574,601.524780 
	C652.518616,591.945862 646.210144,585.441467 637.609741,581.544556 
	C619.475220,573.327637 600.900452,573.505920 583.115051,582.199585 
	C566.220093,590.458008 564.775452,613.956665 580.136230,624.846313 
	C584.947266,628.256958 590.450745,631.153015 596.069031,632.880066 
	C616.222900,639.075256 636.561584,644.669006 656.830444,650.490051 
	C664.652832,653.679993 672.731689,656.361328 680.250488,660.153259 
	C704.876343,672.572510 715.045471,691.775208 712.563110,721.927917 
	C710.940552,741.636169 701.444153,757.023315 685.099182,768.601685 
z"/>
<path fill="#A9065B" opacity="1.000000" stroke="none" 
	d="
M598.998413,746.075500 
	C583.950806,743.963013 571.648621,737.248596 564.930298,723.245789 
	C561.230896,715.535095 556.418823,711.774414 547.907288,712.882446 
	C545.944458,713.138062 543.917725,712.903076 541.459778,712.812866 
	C541.018921,693.386169 541.038696,674.040466 541.080444,654.208740 
	C550.248352,661.359619 561.100891,665.825684 572.087708,669.826599 
	C580.661987,672.948975 589.546509,675.219299 598.646790,678.476257 
	C598.999695,701.414673 598.999023,723.745117 598.998413,746.075500 
z"/>
<path fill="#FEFCFD" opacity="1.000000" stroke="none" 
	d="
M542.006226,401.997955 
	C542.062683,402.439453 542.119141,402.880981 542.194092,403.662140 
	C536.468689,413.655609 531.553101,423.946838 524.750732,432.786102 
	C517.781677,441.841980 507.860291,446.677826 495.334747,444.482056 
	C480.270691,440.254211 471.854126,429.406433 465.293854,416.593750 
	C464.403564,414.854919 463.612457,413.065247 462.464966,411.124664 
	C461.122467,408.180969 460.090424,405.411682 458.959290,402.376556 
	C460.216644,402.210449 461.290131,402.068665 463.080383,401.637848 
	C473.864868,400.222565 483.932526,399.096313 494.462128,398.053223 
	C510.618103,399.423584 526.312195,400.710754 542.006226,401.997955 
z"/>
<path fill="#FDF9FB" opacity="1.000000" stroke="none" 
	d="
M547.171387,408.440369 
	C547.898315,406.774536 548.584290,405.475769 549.595520,403.561005 
	C557.837952,406.086182 566.168335,408.638275 575.340454,411.448273 
	C566.278381,422.032990 555.825012,429.339752 544.105469,435.535645 
	C538.443542,437.629120 532.938232,439.415649 527.098755,441.006287 
	C526.764648,440.810394 526.833191,440.857269 526.833191,440.857269 
	C535.816406,431.578308 542.547607,420.873138 547.171387,408.440369 
z"/>
<path fill="#FDF9FB" opacity="1.000000" stroke="none" 
	d="
M526.729248,440.788727 
	C526.764648,441.004242 526.835510,441.241455 526.906311,441.478668 
	C526.786682,441.360962 526.667053,441.243286 526.690308,440.991455 
	C526.833191,440.857269 526.764648,440.810394 526.729248,440.788727 
z"/>
<path fill="#FFFEFE" opacity="1.000000" stroke="none" 
	d="
M370.656525,536.428833 
	C388.198425,535.674622 405.381165,535.286011 422.571869,540.094971 
	C431.419159,544.017456 439.865112,547.947388 448.827942,552.238525 
	C453.880646,556.442139 458.416443,560.284546 462.952271,564.126953 
	C470.679535,572.841370 477.124603,582.270020 479.321381,594.000610 
	C479.773682,596.415649 480.124725,598.884766 480.163208,601.334656 
	C480.237305,606.050720 477.695831,608.668945 472.876343,608.887329 
	C469.230469,609.052429 465.572113,608.942139 460.997559,608.953613 
	C458.110352,608.943665 456.133972,609.065247 454.181396,608.901917 
	C447.406494,608.335266 440.639832,607.669617 433.690247,606.753418 
	C432.351257,604.499268 431.263916,602.486511 430.018524,600.576782 
	C426.992798,595.937073 424.593567,590.608948 420.678375,586.887512 
	C412.534668,579.146851 402.078979,576.502319 390.543579,576.137695 
	C380.006378,575.723816 370.158508,576.726257 360.785614,580.819763 
	C351.421722,584.909363 345.949097,591.830017 345.126740,602.122986 
	C344.276794,612.760986 348.129730,621.665771 357.688660,626.245300 
	C368.381592,631.367981 379.861908,634.847107 391.281738,639.281982 
	C405.009644,643.104431 418.455414,646.686279 432.165253,650.510437 
	C441.953339,654.785583 451.477356,658.818542 461.001404,662.851440 
	C470.071228,669.144043 477.991333,676.423767 482.821045,686.669983 
	C497.691376,718.217102 484.264038,756.655334 452.284637,773.749878 
	C450.391998,774.761597 448.472534,775.723022 446.284790,776.925293 
	C427.087067,785.011902 407.265594,787.893005 386.457764,787.945679 
	C373.686981,786.379883 361.035797,785.960632 349.160034,782.709229 
	C338.315125,779.740112 328.309814,773.704224 317.602783,768.949219 
	C307.946564,761.527161 299.481232,753.295776 294.865570,742.173279 
	C292.237030,735.839294 290.484650,729.021301 289.275879,722.253662 
	C288.155243,715.979309 291.294617,713.005798 297.668243,712.931824 
	C303.136322,712.868347 308.605469,712.901550 314.997742,712.891602 
	C319.576385,712.901794 323.244049,713.110046 326.883667,712.877869 
	C332.704895,712.506470 336.518463,715.408386 338.665100,720.316345 
	C345.884766,736.823181 359.297760,744.208252 376.736450,746.682861 
	C384.966675,746.890686 392.804718,747.374817 400.578644,746.870667 
	C410.441467,746.230896 419.908051,743.857056 428.171967,737.882568 
	C441.293549,728.396362 444.321014,705.249451 426.330048,695.784607 
	C422.370636,693.701660 418.459595,691.338562 414.246033,689.963013 
	C402.649384,686.177246 390.904083,682.846924 378.882812,679.196777 
	C356.473541,673.445374 334.533997,667.505920 315.994354,653.307190 
	C289.541443,632.009827 289.893097,586.897400 311.186707,563.925110 
	C327.433258,546.863770 347.661041,539.100037 370.656525,536.428833 
z"/>
<path fill="#FEFDFE" opacity="1.000000" stroke="none" 
	d="
M509.543823,298.766510 
	C521.493469,297.563232 532.983643,296.459625 544.906006,295.314453 
	C549.598572,310.069946 551.449463,325.583069 551.960999,341.992249 
	C538.055115,341.992249 524.492310,341.992249 510.466370,342.067047 
	C490.250671,342.141846 470.498138,342.141846 450.114838,342.141846 
	C450.418365,325.762665 452.453308,310.185272 456.842987,296.064148 
	C474.716095,297.022797 491.900177,297.944458 509.543823,298.766510 
z"/>
<path fill="#FEFDFE" opacity="1.000000" stroke="none" 
	d="
M509.540039,348.510223 
	C523.775757,348.473907 537.543823,348.473907 551.949646,348.473907 
	C551.459473,364.811615 549.739990,380.493042 543.951294,395.714325 
	C527.001526,392.327423 510.577850,391.132019 493.549316,391.843079 
	C482.399536,392.881409 471.699951,394.024261 461.000397,395.167114 
	C458.866486,395.560760 456.620178,397.036804 456.005524,393.007355 
	C453.793854,378.507996 451.294647,364.052460 448.733337,348.546539 
	C469.940704,348.546539 489.506561,348.546539 509.540039,348.510223 
z"/>
<path fill="#FEFDFE" opacity="1.000000" stroke="none" 
	d="
M538.007812,276.708099 
	C539.612915,280.497772 541.012390,283.998199 542.881592,288.673401 
	C531.797974,289.850433 521.348511,290.960144 510.451599,292.156433 
	C493.226440,292.376465 476.507233,291.856812 459.569214,288.009216 
	C463.622162,276.428833 469.054016,266.148621 477.241119,257.041077 
	C485.293640,249.418854 494.055359,243.290497 505.343201,246.133865 
	C511.340668,247.644608 517.782532,250.669037 522.055908,254.966949 
	C528.240479,261.187103 532.640686,269.181396 538.007812,276.708099 
z"/>
<path fill="#FEFDFE" opacity="1.000000" stroke="none" 
	d="
M423.344116,406.111755 
	C420.177795,402.462585 416.994934,398.864685 414.595062,394.803986 
	C406.284424,380.741882 401.969879,365.485260 401.461243,348.487000 
	C408.581207,348.487000 415.338684,348.487000 422.547760,348.350983 
	C429.613739,348.214966 436.228058,348.214966 442.272705,348.214966 
	C444.764099,365.126648 447.127655,381.170441 449.501343,397.283203 
	C441.257172,400.051300 432.471863,403.001068 423.344116,406.111755 
z"/>
<path fill="#FEFCFD" opacity="1.000000" stroke="none" 
	d="
M423.463623,342.067841 
	C415.922516,342.143402 408.844421,342.143402 401.366791,342.143402 
	C402.401306,320.110840 409.068176,300.976196 422.684143,284.107147 
	C432.005066,287.137970 441.009949,290.291443 449.493103,293.262207 
	C447.133850,309.243896 444.775513,325.219757 442.299530,341.992279 
	C436.695892,341.992279 430.311279,341.992279 423.463623,342.067841 
z"/>
<path fill="#B70659" opacity="1.000000" stroke="none" 
	d="
M463.039185,563.709473 
	C458.416443,560.284546 453.880646,556.442139 449.168762,552.313721 
	C449.328430,547.401123 449.943024,542.775391 449.955170,538.148010 
	C450.040009,505.869232 449.957245,473.590027 450.078308,441.311493 
	C450.088440,438.616241 451.203125,435.925171 452.333435,432.994568 
	C456.626221,434.696564 460.390289,436.636169 464.154327,438.575745 
	C464.102875,477.351532 464.069214,516.127380 463.962830,554.903015 
	C463.955139,557.700073 463.417419,560.495728 463.039185,563.709473 
z"/>
<path fill="#FDF9FB" opacity="1.000000" stroke="none" 
	d="
M464.541626,438.596832 
	C460.390289,436.636169 456.626221,434.696564 452.523102,432.622009 
	C443.014832,426.838470 434.400665,420.517273 426.619629,411.605164 
	C435.541107,408.798676 443.811554,406.196991 452.312561,403.522766 
	C454.039520,407.517426 455.581696,411.084686 457.374451,414.891357 
	C460.154785,419.736603 462.403259,424.528625 465.293823,428.895721 
	C468.164093,433.232239 471.680389,437.141144 475.632690,442.148956 
	C471.426178,440.761292 468.177551,439.689606 464.541626,438.596832 
z"/>
<path fill="#FDFAFB" opacity="1.000000" stroke="none" 
	d="
M475.514740,249.142975 
	C475.903687,249.198074 475.737732,249.419022 475.787598,249.547882 
	C465.799072,258.001648 460.071960,269.201630 455.048553,280.868011 
	C454.270569,282.674774 453.547363,284.505157 452.578186,286.861023 
	C443.993469,284.242584 435.626282,281.690521 426.506195,278.908783 
	C440.321594,263.978760 455.979706,253.719025 475.514740,249.142975 
z"/>
<path fill="#B5065A" opacity="1.000000" stroke="none" 
	d="
M461.001526,395.609924 
	C471.699951,394.024261 482.399536,392.881409 493.549500,392.273376 
	C494.000000,394.528839 494.000092,396.249451 494.000214,397.970062 
	C483.932526,399.096313 473.864868,400.222565 463.428467,401.418091 
	C462.374054,399.675812 461.688354,397.864288 461.001526,395.609924 
z"/>
<path fill="#000000" opacity="1.000000" stroke="none" 
	d="
M471.619690,1.381595 
	C472.012787,1.710593 472.048828,1.945463 472.023315,2.531412 
	C471.728760,2.350816 471.495728,1.819141 471.619690,1.381595 
z"/>
<path fill="#B80759" opacity="1.000000" stroke="none" 
	d="
M433.870056,607.041626 
	C440.639832,607.669617 447.406494,608.335266 454.181396,608.901917 
	C456.133972,609.065247 458.110352,608.943665 460.538208,609.034668 
	C461.000763,626.722229 461.000946,644.327759 461.001282,662.392334 
	C451.477356,658.818542 441.953339,654.785583 432.186523,650.024841 
	C431.962708,636.924133 431.909882,624.550232 432.083374,612.179504 
	C432.107513,610.458862 433.246918,608.753845 433.870056,607.041626 
z"/>
<path fill="#FDF9FB" opacity="1.000000" stroke="none" 
	d="
M560.562866,264.953979 
	C565.580200,269.449249 570.271973,273.860046 575.660645,278.926056 
	C566.458374,281.710907 558.127319,284.232086 549.670959,286.791168 
	C547.173462,281.286316 544.926392,276.333618 542.402466,271.171814 
	C536.986877,263.788788 531.848328,256.614929 526.828796,249.087112 
	C539.032471,252.073471 550.130615,257.448792 560.562866,264.953979 
z"/>
<path fill="#A3055C" opacity="1.000000" stroke="none" 
	d="
M656.865845,649.990662 
	C636.561584,644.669006 616.222900,639.075256 596.069031,632.880066 
	C590.450745,631.153015 584.947266,628.256958 580.136230,624.846313 
	C564.775452,613.956665 566.220093,590.458008 583.115051,582.199585 
	C600.900452,573.505920 619.475220,573.327637 637.609741,581.544556 
	C646.210144,585.441467 652.518616,591.945862 655.150574,601.524780 
	C655.729614,603.632141 657.606384,605.382874 658.996704,607.625366 
	C658.405579,610.234863 657.142944,612.505249 657.095459,614.800720 
	C656.856567,626.360596 656.934570,637.927124 656.865845,649.990662 
z"/>
<path fill="#FEFDFE" opacity="1.000000" stroke="none" 
	d="
M599.447754,361.370728 
	C596.536987,376.834625 591.019409,390.733490 582.110718,403.270355 
	C580.329407,405.777161 578.886536,406.162262 576.002380,405.113800 
	C568.083191,402.235046 559.998962,399.810333 552.472961,397.366028 
	C554.846802,381.274689 557.209412,365.259216 559.658447,348.658234 
	C572.581543,348.658234 586.156067,348.658234 600.171265,348.708191 
	C600.226440,352.813965 599.840820,356.869843 599.447754,361.370728 
z"/>
<path fill="#FEFCFD" opacity="1.000000" stroke="none" 
	d="
M600.750244,341.240723 
	C586.907166,341.641144 572.984070,341.641144 559.619690,341.641144 
	C557.237732,325.442932 554.881104,309.416412 552.482300,293.103210 
	C560.985718,290.319427 570.160400,287.315887 579.640625,284.212311 
	C589.763611,296.881226 596.209045,311.386841 599.241455,327.861053 
	C599.810547,332.417206 600.240356,336.628754 600.750244,341.240723 
z"/>
<path fill="#B0065A" opacity="1.000000" stroke="none" 
	d="
M494.462128,398.053223 
	C494.000092,396.249451 494.000000,394.528839 493.999695,392.377930 
	C510.577850,391.132019 527.001526,392.327423 543.627686,395.897186 
	C543.559509,397.946167 543.118774,399.832062 542.342163,401.857971 
	C526.312195,400.710754 510.618103,399.423584 494.462128,398.053223 
z"/>
<path fill="#C50858" opacity="1.000000" stroke="none" 
	d="
M315.898987,653.694397 
	C334.533997,667.505920 356.473541,673.445374 378.838562,679.707275 
	C379.085907,699.688354 379.147247,719.020630 378.881042,738.348328 
	C378.843353,741.083557 377.210388,743.796814 376.315826,746.520203 
	C359.297760,744.208252 345.884766,736.823181 338.665100,720.316345 
	C336.518463,715.408386 332.704895,712.506470 326.883667,712.877869 
	C323.244049,713.110046 319.576385,712.901794 315.459839,712.809998 
	C314.998962,695.470825 314.969849,678.212769 315.035706,660.955017 
	C315.044464,658.662964 315.535736,656.372681 315.898987,653.694397 
z"/>
<path fill="#A2055D" opacity="1.000000" stroke="none" 
	d="
M599.361572,746.282410 
	C598.999023,723.745117 598.999695,701.414673 599.000549,678.626343 
	C614.949646,683.219666 631.311157,687.266663 646.732361,693.602295 
	C662.411987,700.044006 667.372742,712.995972 661.619751,726.721741 
	C658.113159,735.087891 651.385315,740.096191 643.103333,743.077026 
	C628.978699,748.160889 614.401428,748.100952 599.361572,746.282410 
z"/>
<path fill="#BE0859" opacity="1.000000" stroke="none" 
	d="
M376.736450,746.682861 
	C377.210388,743.796814 378.843353,741.083557 378.881042,738.348328 
	C379.147247,719.020630 379.085907,699.688354 379.173340,679.846985 
	C390.904083,682.846924 402.649384,686.177246 414.246033,689.963013 
	C418.459595,691.338562 422.370636,693.701660 426.330048,695.784607 
	C444.321014,705.249451 441.293549,728.396362 428.171967,737.882568 
	C419.908051,743.857056 410.441467,746.230896 400.578644,746.870667 
	C392.804718,747.374817 384.966675,746.890686 376.736450,746.682861 
z"/>
<path fill="#BD0859" opacity="1.000000" stroke="none" 
	d="
M433.690247,606.753418 
	C433.246918,608.753845 432.107513,610.458862 432.083374,612.179504 
	C431.909882,624.550232 431.962708,636.924133 431.922485,649.782593 
	C418.455414,646.686279 405.009644,643.104431 391.281860,638.810669 
	C391.000763,617.472046 391.001617,596.845398 391.002472,576.218689 
	C402.078979,576.502319 412.534668,579.146851 420.678375,586.887512 
	C424.593567,590.608948 426.992798,595.937073 430.018524,600.576782 
	C431.263916,602.486511 432.351257,604.499268 433.690247,606.753418 
z"/>
<path fill="#C30958" opacity="1.000000" stroke="none" 
	d="
M390.543579,576.137695 
	C391.001617,596.845398 391.000763,617.472046 390.999725,638.570068 
	C379.861908,634.847107 368.381592,631.367981 357.688660,626.245300 
	C348.129730,621.665771 344.276794,612.760986 345.126740,602.122986 
	C345.949097,591.830017 351.421722,584.909363 360.785614,580.819763 
	C370.158508,576.726257 380.006378,575.723816 390.543579,576.137695 
z"/>
</svg>